<?xml version="1.0" encoding="UTF-8" standalone="no"?>
<svg
   xmlns:dc="http://purl.org/dc/elements/1.1/"
   xmlns:cc="http://creativecommons.org/ns#"
   xmlns:rdf="http://www.w3.org/1999/02/22-rdf-syntax-ns#"
   xmlns:svg="http://www.w3.org/2000/svg"
   xmlns="http://www.w3.org/2000/svg"
   viewBox="0 0 868 168"
   height="168"
   width="868"
   xml:space="preserve"
   id="svg2"
   version="1.1"><metadata
     id="metadata8"><rdf:RDF><cc:Work
         rdf:about=""><dc:format>image/svg+xml</dc:format><dc:type
           rdf:resource="http://purl.org/dc/dcmitype/StillImage" /></cc:Work></rdf:RDF></metadata><defs
     id="defs6" /><g
     transform="matrix(1.3333333,0,0,-1.3333333,0,168)"
     id="g10"><g
       transform="scale(0.1)"
       id="g12"><path
         id="path14"
         style="fill:#5f6368;fill-opacity:1;fill-rule:evenodd;stroke:none"
         d="m 3908.06,471.055 216.76,90.058 c -12.05,30.367 -47.65,51.309 -90.06,51.309 -54.19,0.262 -129.32,-47.645 -126.7,-141.367 z m 254.45,-87.172 82.73,-54.973 c -26.7,-39.531 -90.84,-107.594 -202.1,-107.594 -137.7,0 -237.18,106.543 -237.18,242.411 0,144.246 100.26,242.414 225.4,242.414 125.91,0 187.44,-100 207.6,-154.188 l 10.99,-27.488 -324.09,-134.031 c 24.87,-48.692 63.35,-73.563 117.54,-73.563 53.93,-0.004 91.63,26.695 119.11,67.012 z m -525.4,-147.91 h 106.55 v 712.578 l -106.55,0.004 z m -173.82,226.968 c 0,85.34 -57.08,147.911 -129.58,147.911 -73.31,0 -135.08,-62.567 -135.08,-147.911 0,-84.554 61.51,-146.074 135.08,-146.074 72.77,0 129.58,61.52 129.58,146.074 z M 3557,691.477 V 256.129 C 3557,77.0664 3451.5,3.50781 3326.64,3.50781 c -117.55,0 -188.23,79.05859 -214.93,143.19519 l 92.67,38.485 c 16.5,-39.528 57.07,-86.3911 122.26,-86.3911 79.84,0 129.58,49.4761 129.58,142.4101 v 34.82 l -3.93,0.004 c -23.82,-29.324 -69.9,-55.242 -127.75,-55.242 -121.2,0 -232.46,105.5 -232.46,241.625 0,136.914 111,243.461 232.46,243.461 57.85,0 103.93,-25.652 127.75,-54.187 l 3.66,0.003 v 39.528 c 0,0.258 101.05,0.258 101.05,0.258 z M 2394.42,463.727 c 0,87.171 -62.3,146.863 -134.3,146.863 -72.24,0 -134.29,-59.692 -134.29,-146.863 0,-86.391 62.3,-146.86 134.29,-146.86 72,0 134.3,60.735 134.3,146.86 z m 104.71,0 c 0,-139.532 -107.33,-242.414 -239.01,-242.414 -131.67,0 -239.01,102.878 -239.01,242.414 0,140.578 107.34,242.414 239.01,242.414 131.68,0 239.01,-101.836 239.01,-242.414 z m 430.9,0 c 0,87.171 -62.3,146.863 -134.3,146.863 -72.25,0 -134.29,-59.692 -134.29,-146.863 0,-86.391 62.3,-146.86 134.29,-146.86 72,0 134.3,60.735 134.3,146.86 z m 104.71,0 c 0,-139.532 -107.33,-242.414 -239.01,-242.414 -131.67,0 -239.01,102.878 -239.01,242.414 0,140.578 107.34,242.414 239.01,242.414 131.68,0 239.01,-101.836 239.01,-242.414 z M 1611.68,221.316 c -207.33,0 -381.94,169.11 -381.94,376.446 0,207.593 174.61,376.707 381.94,376.707 114.93,0 196.61,-45.024 258.12,-103.93 l -72.51,-72.516 c -43.98,41.364 -103.67,73.563 -185.61,73.563 -151.57,0 -270.16,-122.254 -270.16,-273.566 0,-151.575 118.59,-273.563 270.16,-273.563 98.17,0 154.2,39.527 190.06,75.395 29.32,29.316 48.69,71.726 56.02,129.582 l -246.08,0.004 V 632.32 h 346.08 c 3.67,-18.328 5.5,-40.32 5.5,-64.136 0,-77.231 -21.21,-172.782 -89.01,-240.582 -65.96,-69.375 -150.52,-106.286 -262.57,-106.286" /><path
         id="path16"
         style="fill:#63666a;fill-opacity:1;fill-rule:evenodd;stroke:none"
         d="m 4501.03,242.789 v 632.879 h 81.74 l 219.79,-385.469 h 3.32 l 219.79,385.469 h 81.73 V 242.793 l -81.73,-0.004 V 618.32 l 3.31,106.032 h -3.31 L 4827.96,377.539 h -47.49 l -197.7,346.813 h -3.32 l 3.31,-106.032 V 242.789 h -81.73" /><path
         id="path18"
         style="fill:#63666a;fill-opacity:1;fill-rule:evenodd;stroke:none"
         d="m 5357.02,228.434 c -46.39,0 -83.94,13.25 -114.87,39.761 -30.92,26.508 -46.39,61.852 -46.39,104.926 0,47.492 18.78,83.942 55.22,110.449 36.46,26.512 81.74,39.762 134.76,39.762 47.49,0 87.25,-8.836 117.07,-26.508 v 12.153 c 0,32.027 -11.04,57.429 -33.13,76.207 -22.09,18.777 -48.6,28.718 -80.63,28.718 -23.19,0 -45.28,-5.523 -64.06,-16.57 -18.78,-11.043 -32.03,-26.504 -39.76,-46.387 l -74,32.032 c 9.93,25.402 29.82,49.699 59.64,71.789 29.82,22.089 68.47,33.136 117.07,33.136 55.23,0 101.61,-16.566 138.07,-48.597 36.44,-32.032 55.22,-78.422 55.22,-136.961 V 240.578 l -77.32,0.004 v 59.641 h -3.31 c -33.13,-46.387 -80.63,-71.789 -143.58,-71.789 z m 13.25,75.101 c 33.14,0 64.06,12.153 91.67,37.555 27.61,25.402 40.87,54.121 40.87,88.359 -23.2,18.778 -57.43,28.719 -103.83,28.719 -39.76,0 -69.58,-8.836 -89.46,-25.406 -19.88,-16.567 -29.82,-37.551 -29.82,-59.641 0,-20.984 8.84,-37.551 27.61,-50.808 18.78,-13.254 39.77,-18.778 62.96,-18.778" /><path
         id="path20"
         style="fill:#63666a;fill-opacity:1;fill-rule:evenodd;stroke:none"
         d="m 5898.22,228.434 c -33.14,0 -62.96,6.625 -88.36,20.984 -25.4,14.359 -45.29,32.031 -58.54,53.016 h -4.41 l 3.31,-59.641 V 51.7148 l -80.63,-0.0039 V 675.75 h 77.32 v -59.641 h 3.31 c 13.25,20.985 32.03,38.661 58.54,53.016 26.51,14.355 56.32,20.988 88.36,20.988 56.33,0 103.82,-22.09 144.69,-66.273 40.86,-44.176 60.74,-99.402 60.74,-164.57 0,-65.165 -19.87,-120.391 -60.74,-164.571 -39.77,-44.176 -88.36,-66.265 -143.59,-66.265 z m -13.26,75.101 c 37.56,0 69.59,14.363 97.2,43.078 27.62,28.715 40.87,66.27 40.87,113.762 0,47.496 -13.25,85.047 -40.87,113.762 -27.61,28.718 -59.64,43.078 -97.2,43.078 -38.65,0 -70.68,-14.36 -97.19,-41.973 -26.51,-28.715 -39.76,-66.269 -39.76,-113.762 0,-47.496 13.25,-86.152 39.76,-113.761 26.51,-30.926 58.54,-44.184 97.19,-44.184" /><path
         id="path22"
         style="fill:#63666a;fill-opacity:1;fill-rule:evenodd;stroke:none"
         d="m 6338.91,228.434 c -48.59,0 -88.36,12.148 -119.28,35.343 -32.03,23.196 -54.12,53.016 -69.59,88.36 l 72.91,29.824 c 23.19,-54.121 61.85,-81.734 117.07,-81.734 25.4,0 46.39,5.523 61.85,16.566 16.57,11.047 24.3,25.402 24.3,44.18 0,28.715 -19.88,47.492 -59.64,57.433 l -87.26,20.989 c -27.61,6.625 -54.12,20.984 -78.42,39.761 -24.3,18.774 -37.55,46.387 -37.55,79.52 0,38.66 16.57,69.586 50.81,92.781 34.24,24.297 74,35.344 120.39,35.344 38.66,0 72.9,-8.836 102.72,-26.508 29.82,-17.672 51.91,-41.973 64.06,-75.105 l -70.69,-28.715 c -15.46,38.66 -48.6,57.433 -99.41,57.433 -24.29,0 -44.17,-5.523 -60.74,-15.465 -16.57,-9.937 -24.3,-23.195 -24.3,-40.863 0,-24.297 18.78,-41.973 57.43,-50.808 l 86.15,-19.879 c 40.87,-9.942 70.69,-25.407 90.57,-48.602 19.89,-23.191 28.72,-48.598 28.72,-77.312 0,-38.657 -15.46,-71.793 -47.49,-97.196 -30.93,-22.097 -71.8,-35.347 -122.61,-35.347" /><path
         id="path24"
         style="fill:#34a853;fill-opacity:1;fill-rule:evenodd;stroke:none"
         d="m 242.039,329.711 c 38.52,-48.176 77.75,-108.547 98.281,-145.137 25.004,-47.562 35.371,-79.679 53.973,-136.8006 10.871,-31.5078 21.238,-41.06246 42.988,-41.06246 23.782,0 34.66,16.05856 42.992,41.06246 17.379,53.9686 30.797,95.0316 52.036,134.2616 41.777,75.106 94.421,141.985 145.847,206.219 14.129,17.992 104.078,123.996 144.528,208.148 0,0 49.496,91.883 49.496,220.352 0,120.129 -48.782,203.576 -48.782,203.576 l -141.277,-37.912 -86.086,-226.141 -21.238,-30.793 -4.473,-5.796 -5.797,-7.114 -9.652,-11.586 -14.129,-14.129 -76.43,-62.3 L 273.543,514.082 242.039,329.711" /><path
         id="path26"
         style="fill:#fbbc04;fill-opacity:1;fill-rule:evenodd;stroke:none"
         d="M 44.8672,611.75 C 91.7227,505.137 181.059,411.938 242.039,329.711 l 323.102,382.867 c 0,0 -45.637,-59.765 -127.86,-59.765 -91.879,0 -166.375,73.179 -166.375,165.769 0,63.621 37.91,107.227 37.91,107.227 L 89.7891,867.367 44.8672,611.75" /><path
         id="path28"
         style="fill:#4285f4;fill-opacity:1;fill-rule:evenodd;stroke:none"
         d="m 569.004,1234.17 c 107.223,-34.65 199.101,-107.22 254.394,-214.55 L 565.141,711.965 c 0,0 37.91,44.312 37.91,107.226 0,94.422 -79.68,165.77 -165.766,165.77 -81.617,0 -128.469,-59.051 -128.469,-59.051 v 193.92 l 260.188,114.34" /><path
         id="path30"
         style="fill:#1a73e8;fill-opacity:1;fill-rule:evenodd;stroke:none"
         d="m 103.914,1098.59 c 64.238,76.43 176.645,155.4 332.047,155.4 75.109,0 132.332,-19.92 132.332,-19.92 L 308.816,925.703 H 125.055 l -21.141,172.887" /><path
         id="path32"
         style="fill:#ea4335;fill-opacity:1;fill-rule:evenodd;stroke:none"
         d="m 44.8672,611.75 c 0,0 -42.38282,84.156 -42.38282,205.512 0,114.949 44.92192,215.158 102.14462,280.718 L 309.527,925.199 44.8672,611.75" /></g></g></svg>