<?xml version="1.0" encoding="UTF-8" standalone="no"?>
<svg
   xmlns:dc="http://purl.org/dc/elements/1.1/"
   xmlns:cc="http://creativecommons.org/ns#"
   xmlns:rdf="http://www.w3.org/1999/02/22-rdf-syntax-ns#"
   xmlns:svg="http://www.w3.org/2000/svg"
   xmlns="http://www.w3.org/2000/svg"
   viewBox="0 0 132 29.333332"
   height="29.333332"
   width="132"
   xml:space="preserve"
   id="svg2"
   version="1.1"><metadata
     id="metadata8"><rdf:RDF><cc:Work
         rdf:about=""><dc:format>image/svg+xml</dc:format><dc:type
           rdf:resource="http://purl.org/dc/dcmitype/StillImage" /></cc:Work></rdf:RDF></metadata><defs
     id="defs6" /><g
     transform="matrix(1.3333333,0,0,-1.3333333,0,29.333333)"
     id="g10"><g
       transform="scale(0.1)"
       id="g12"><path
         id="path14"
         style="fill:#000000;fill-opacity:1;fill-rule:evenodd;stroke:none"
         d="m 924.328,108.527 c 17.113,0 27.094,-8.5661 27.094,-28.777 0,-20.6836 -11.399,-29 -28.289,-29 l -7.121,-0.0039 V 108.52 h 8.324 z m 61.801,53.25 h -10.93 V 41.9492 h 10.938 V 161.777 Z M 904.828,41.9492 h 19.262 c 22.574,0 38.273,12.5977 38.273,38.0391 0,24.9767 -14.73,37.3277 -37.554,37.3277 h -8.797 V 161.77 H 904.836 V 41.9492 Z M 885.43,162.969 v -1.184 H 818.852 V 152.5 h 27.812 V 41.9492 H 857.84 V 152.5 h 27.582 z M 775.25,39.8086 c 22.352,0 37.09,21.6328 37.09,65.6254 0,34.703 -11.664,58.726 -31.625,58.726 -13.32,0 -22.113,-10.707 -27.348,-22.125 l -0.953,19.742 h -9.75 V 4.86328 h 11.172 V 50.2734 c 5.137,-6.5976 13.043,-10.4609 21.406,-10.4609 z m 0.719,8.8008 c -10.707,0 -17.36,4.7539 -22.121,14.4961 v 67.0505 c 5.234,12.848 14.269,24.258 24.972,24.258 13.785,0 22.352,-18.543 22.352,-49.93 0,-37.7965 -9.996,-55.8707 -25.199,-55.8707 z m -66.567,-6.6602 h 10.223 C 718.199,46.4648 717,55.7461 717,64.0586 v 65.3824 c 0,23.774 -11.176,34.711 -30.902,34.711 -13.551,0 -23.535,-5.949 -28.289,-12.125 l 3.089,-10.695 c 5.7,8.324 14.977,13.078 25.2,13.078 13.078,0 19.972,-7.847 19.972,-26.152 v -14.981 l -13.086,0.004 c -25.914,0 -39.937,-13.3122 -39.937,-38.9997 0,-21.8633 11.172,-34.6993 27.336,-34.6993 11.89,0 20.445,7.125 26.152,18.5469 0.711,-8.5664 1.906,-13.082 2.848,-16.1719 z m -26.625,6.6602 c -11.418,0 -18.789,9.75 -18.789,26.625 0,20.9258 9.512,29.9536 29.25,29.9536 h 12.825 V 72.1406 C 701.789,59.3008 693.941,48.6055 682.766,48.6055 Z m -50.175,-6.6602 h 13.32 l -53.27,91.5348 48.977,78.45 -11.399,0.004 -49.703,-79.391 v 79.398 H 568.648 V 41.9492 h 11.887 v 89.6248 l 52.082,-89.6248 h -0.015" /><path
         id="path16"
         style="fill:#000000;fill-opacity:1;fill-rule:evenodd;stroke:none"
         d="m 320.676,148.223 c 10.703,0 14.027,-14.977 14.027,-35.422 h -30.68 c 1.2,21.402 5.25,35.422 16.653,35.422 z M 245.551,57.1602 h -31.863 c 9.988,25.4453 11.175,62.2928 11.175,87.4918 v 2.145 h 20.688 V 57.1719 Z m 241.078,-16.875 c 10.934,0 18.539,3.5664 24.957,9.0351 l -4.273,13.7852 c -4.278,-3.7969 -11.176,-7.3516 -20.215,-7.3516 -14.977,0 -22.11,17.1016 -22.11,47.0661 0,30.192 9.508,45.172 22.821,45.172 7.613,0 14.746,-4.051 19.726,-8.324 l 2.625,17.602 c -5.226,3.32 -11.414,6.179 -22.109,6.179 -28.051,0 -42.555,-24.023 -42.555,-61.59 0,-40.8902 15.449,-61.5738 41.133,-61.5738 z m -63.723,1.664 h 20.223 l -34.004,63.4768 29.715,56.347 -18.781,0.004 -28.77,-55.394 v 55.402 H 372.738 V 41.9492 h 18.551 V 101.625 Z M 159.723,161.785 v -50.887 h -27.575 v 50.879 H 113.602 V 41.9492 h 18.546 v 53.7305 h 27.575 V 41.9492 h 18.3 V 161.777 h -18.3 z M 353.961,50.0352 349.684,64.3008 c -4.746,-3.332 -13.071,-8.086 -23.536,-8.086 -14.738,0 -22.351,14.2618 -22.351,41.3672 h 49.93 v 10.219 c 0,40.664 -13.079,55.648 -33.051,55.648 -25.442,0 -36.137,-28.066 -36.137,-66.5779 0,-36.8555 15.227,-56.5859 39.938,-56.5859 11.886,0 21.878,3.8007 29.476,9.75 z m -80.598,7.1406 h -9.508 V 161.77 h -55.628 v -10.223 c 0,-31.863 -1.2,-68.9493 -12.133,-94.3868 h -7.367 V 18.3984 h 16.652 v 23.5508 h 51.344 v -23.539 l 16.652,0.0039 v 38.7617 h -0.012" /><path
         id="path18"
         style="fill:#ff0000;fill-opacity:1;fill-rule:evenodd;stroke:none"
         d="M 71.5195,107.094 V 41.9492 H 89.8203 V 211.945 H 62.4805 c -26.8633,0 -49.4532,-17.836 -49.4532,-53.5 0,-25.441 9.9883,-39.226 24.9727,-46.836 L 6.11719,41.9492 H 27.2852 L 56.293,107.094 Z m 0,15.226 h -9.7539 c -15.9297,0 -29.0078,8.789 -29.0078,36.125 0,28.289 14.2617,38.043 29.0078,38.043 h 9.7539 v -74.175 0.007" /></g></g></svg>