<?xml version="1.0" encoding="UTF-8"?> <svg xmlns="http://www.w3.org/2000/svg" width="248" height="248" viewBox="0 0 248 248" fill="none"> <path d="M109.381 137.99L118.304 132.834L106.732 123.1L109.381 137.99Z" fill="#B39594"></path> <path d="M219.624 123.901C219.624 121.706 218.545 119.777 216.904 118.566L216.938 118.507L193.815 105.157L207.125 82.103L207.08 82.0758C207.501 81.1256 207.691 80.0897 207.637 79.0522C207.582 78.0146 207.283 77.0046 206.765 76.1039C206.243 75.2041 205.517 74.4401 204.644 73.8738C203.772 73.3076 202.778 72.9552 201.743 72.8452V72.7807H175.039V46.153H174.984C174.873 45.1199 174.52 44.1275 173.954 43.2563C173.388 42.3851 172.624 41.6595 171.725 41.1384C170.823 40.6188 169.811 40.3198 168.772 40.2659C167.732 40.2121 166.695 40.4048 165.744 40.8284L165.711 40.7714L142.199 54.3469L129.179 31.7937L129.131 31.821C128.518 30.9821 127.717 30.2993 126.791 29.828C125.865 29.3566 124.841 29.11 123.802 29.1079C121.607 29.1079 119.675 30.1867 118.467 31.8285L118.408 31.7937L105.172 54.7189L82.3809 41.56L82.3536 41.6071C81.4035 41.1867 80.3676 40.9961 79.3301 41.0508C78.2925 41.1056 77.2824 41.404 76.3818 41.9221C75.4814 42.4435 74.7168 43.1701 74.1501 44.0427C73.5834 44.9154 73.2307 45.9094 73.1206 46.9441H73.0536V73.4156H46.7359V73.4677C45.7028 73.5788 44.7105 73.9317 43.8393 74.4979C42.968 75.0641 42.2425 75.8275 41.7213 76.7264C41.203 77.6279 40.9047 78.639 40.8504 79.6774C40.7961 80.7159 40.9874 81.7525 41.4088 82.7032L41.3518 82.7379L54.3619 105.274L31.0647 118.725L31.092 118.772C30.2531 119.385 29.5703 120.187 29.099 121.113C28.6276 122.039 28.3809 123.063 28.3789 124.102C28.3789 126.297 29.4577 128.229 31.0995 129.436L31.0647 129.496L54.1883 142.846L40.8781 165.9L40.9227 165.925C40.5023 166.875 40.3117 167.911 40.3665 168.948C40.4212 169.986 40.7197 170.996 41.2377 171.896C41.7596 172.796 42.4863 173.56 43.3589 174.126C44.2315 174.693 45.2253 175.045 46.2597 175.155V175.222H72.9619V201.847H73.0164C73.2446 203.871 74.3779 205.766 76.2751 206.862C77.1774 207.381 78.1894 207.68 79.2289 207.733C80.2684 207.787 81.3059 207.595 82.2569 207.172L82.2891 207.229L105.802 193.653L118.822 216.207L118.869 216.179C119.482 217.018 120.284 217.701 121.21 218.172C122.136 218.644 123.16 218.89 124.199 218.892C126.393 218.892 128.325 217.814 129.533 216.174L129.59 216.207L142.826 193.281L165.62 206.44L165.647 206.393C166.597 206.814 167.633 207.004 168.67 206.949C169.708 206.895 170.718 206.596 171.619 206.078C172.519 205.557 173.284 204.831 173.851 203.958C174.418 203.085 174.77 202.091 174.88 201.056H174.947V174.587H201.267V174.535C202.3 174.424 203.293 174.071 204.164 173.505C205.035 172.939 205.761 172.175 206.282 171.276C206.8 170.375 207.098 169.364 207.153 168.325C207.207 167.287 207.016 166.25 206.594 165.3L206.651 165.267L193.641 142.732L216.938 129.28L216.911 129.233C217.75 128.619 218.433 127.817 218.904 126.891C219.375 125.965 219.622 124.94 219.624 123.901ZM93.092 161.689C87.5616 164.883 82.5471 165.319 78.284 164.174L78.8816 157.485C82.1106 158.42 86.2844 158.415 90.2276 156.136C93.6178 154.179 94.3395 151.759 93.3747 150.09C90.5004 145.115 76.0346 158.1 69.8172 147.334C67.0694 142.573 68.9071 136.246 75.6452 132.358C80.1911 129.731 84.7592 128.928 89.1017 129.908L88.3354 136.413C84.7815 135.609 81.1235 136.403 78.2071 138.084C75.6328 139.572 74.8169 141.529 75.8089 143.247C78.4104 147.751 93.0821 135.222 99.2474 145.899C102.271 151.129 100.775 157.257 93.092 161.689ZM127.671 141.04L123.073 137.233L110.804 144.316L111.799 150.204L104.892 154.189L99.3987 119.214L107.035 114.807L134.577 137.055L127.671 141.04ZM136.978 135.669L120.459 107.054L126.594 103.51L140.019 126.76L152.116 119.777L155.214 125.141L136.978 135.669ZM159.328 122.765L142.809 94.1534L163.055 82.4602L166.15 87.8219L151.997 95.996L155.464 102.003L169.317 94.0021L172.412 99.3638L158.559 107.362L162.324 113.884L176.48 105.71L179.577 111.072L159.328 122.765Z" fill="#C47178"></path> </svg> 