<?xml version="1.0" encoding="UTF-8"?> <svg xmlns="http://www.w3.org/2000/svg" width="60" height="60" viewBox="0 0 60 60" fill="none"> <circle cx="30" cy="30" r="30" fill="#CEAFAE"></circle> <path d="M42 31.5C42.2761 31.5 42.5 31.2761 42.5 31C42.5 30.7239 42.2761 30.5 42 30.5L42 31.5ZM17.6464 30.6464C17.4512 30.8417 17.4512 31.1583 17.6464 31.3536L20.8284 34.5355C21.0237 34.7308 21.3403 34.7308 21.5355 34.5355C21.7308 34.3403 21.7308 34.0237 21.5355 33.8284L18.7071 31L21.5355 28.1716C21.7308 27.9763 21.7308 27.6597 21.5355 27.4645C21.3403 27.2692 21.0237 27.2692 20.8284 27.4645L17.6464 30.6464ZM42 30.5L18 30.5L18 31.5L42 31.5L42 30.5Z" fill="white"></path> </svg> 