<?xml version="1.0" encoding="UTF-8"?> <svg xmlns="http://www.w3.org/2000/svg" width="157" height="157" viewBox="0 0 157 157" fill="none"> <path fill-rule="evenodd" clip-rule="evenodd" d="M157 78.5C157 121.852 121.852 157 78.5 157C35.1484 157 0 121.852 0 78.5C0 35.1484 35.1484 0 78.5 0C121.852 0 157 35.1484 157 78.5ZM81.3129 57.9526C73.6788 61.1253 58.4171 67.6997 35.5343 77.6692C31.8187 79.1476 29.8693 80.5933 29.6926 82.0063C29.3917 84.4006 32.3878 85.3426 36.4567 86.6182C37.0128 86.7948 37.5884 86.9715 38.1772 87.1677C42.1872 88.4695 47.5775 89.9937 50.3774 90.0526C52.9221 90.1049 55.7612 89.0583 58.8946 86.9126C80.2728 72.4751 91.3086 65.1812 92.002 65.0242C92.4926 64.913 93.173 64.769 93.6309 65.1812C94.0888 65.5868 94.043 66.3587 93.9972 66.568C93.6963 67.8305 81.9605 78.7486 75.8768 84.4006C73.9797 86.1603 72.6387 87.4098 72.3639 87.6976C71.749 88.3321 71.121 88.9405 70.5192 89.5227C66.7904 93.1076 64.0037 95.8027 70.6762 100.199C73.8816 102.312 76.4459 104.058 79.0037 105.798C81.797 107.702 84.5838 109.599 88.1948 111.967C89.1106 112.569 89.9872 113.19 90.8441 113.799C94.0953 116.121 97.0195 118.201 100.63 117.874C102.724 117.678 104.896 115.709 105.995 109.828C108.592 95.9205 113.707 65.8026 114.891 53.3865C114.963 52.3557 114.919 51.32 114.76 50.2989C114.665 49.4742 114.264 48.7153 113.635 48.1728C112.7 47.4075 111.248 47.2439 110.593 47.257C107.643 47.3093 103.116 48.8859 81.3129 57.9526Z" fill="#C99593"></path> </svg> 