<?xml version="1.0" encoding="UTF-8"?> <svg xmlns="http://www.w3.org/2000/svg" width="177" height="102" viewBox="0 0 177 102" fill="none"> <path fill-rule="evenodd" clip-rule="evenodd" d="M86.8664 100.877H97.598C97.598 100.877 100.817 100.341 102.427 98.7308C104.037 97.121 104.037 93.9015 104.037 93.9015C104.037 93.9015 104.037 79.9505 110.476 77.8041C116.915 75.6578 125.5 91.7552 134.085 97.6576C140.524 102.487 145.354 101.414 145.354 101.414L168.963 100.877C168.963 100.877 181.305 100.341 175.402 90.1455C174.866 89.6089 172.183 83.1699 157.695 69.7554C142.671 55.8043 144.817 58.4872 162.524 34.3411C173.256 19.8535 177.548 11.2682 176.475 6.97554C175.402 3.21948 167.353 4.29264 167.353 4.29264H140.524C140.524 4.29264 138.378 3.75606 137.305 4.82922C135.695 5.90238 135.159 7.51212 135.159 7.51212C135.159 7.51212 130.866 18.7803 125.5 28.4388C113.695 48.2922 108.866 49.3654 107.256 48.2922C102.964 45.6093 104.037 36.4875 104.037 30.5851C104.037 11.2682 107.256 3.21948 98.1346 1.07315C95.4517 0.536574 93.3053 0 85.7932 0C76.1348 0 68.0861 -2.07887e-06 63.7934 2.14632C60.5739 3.75606 58.4276 6.97554 60.0374 6.97554C61.6471 6.97554 65.9398 8.0487 68.0861 10.7316C70.2324 15.5608 70.2324 23.6095 70.2324 23.6095C70.2324 23.6095 71.8421 46.6825 66.4763 49.3654C62.7203 51.5117 57.8911 47.2191 47.1594 28.9753C41.7936 19.8535 37.501 9.12186 37.501 9.12186C37.501 9.12186 36.9644 6.97555 35.3547 5.90239C33.7449 4.82922 31.062 4.29264 31.062 4.29264H5.84276C5.84276 4.29264 2.0867 4.29264 0.47696 5.90239C-0.5962 7.51213 0.47696 10.195 0.47696 10.195C0.47696 10.195 20.3304 56.3409 42.8668 79.9505C63.7934 102.487 86.8664 100.877 86.8664 100.877Z" fill="#C99593"></path> </svg> 