<?xml version="1.0" encoding="UTF-8"?> <svg xmlns="http://www.w3.org/2000/svg" width="104" height="104" viewBox="0 0 104 104" fill="none"> <path d="M33.6794 10.5694L38.342 9.07873C42.7143 7.6834 47.3856 9.94106 49.2576 14.3524L52.9843 23.1403C54.6049 26.9667 53.7036 31.469 50.757 34.2683L42.5453 42.0596C43.0523 46.7223 44.621 51.3112 47.247 55.8266C49.7407 60.1951 53.0856 64.0189 57.0836 67.0715L66.9462 63.7782C70.6815 62.5345 74.7549 63.9689 77.0429 67.3358L82.3858 75.1792C85.0508 79.0965 84.5698 84.4958 81.2635 87.8151L77.7232 91.3728C74.1959 94.9131 69.1562 96.2001 64.4979 94.7441C53.4913 91.3121 43.3817 81.1245 34.1517 64.1812C24.9087 47.2119 21.6457 32.808 24.3671 20.9867C25.5111 16.012 29.0514 12.0471 33.6794 10.5694Z" fill="white"></path> </svg> 