<?xml version="1.0" encoding="UTF-8"?> <svg xmlns="http://www.w3.org/2000/svg" width="1017" height="1017" style="shape-rendering:geometricPrecision;text-rendering:geometricPrecision;image-rendering:optimizeQuality;fill-rule:evenodd;clip-rule:evenodd"> <path style="opacity:.998" fill="#c09992" d="M379.5 87.5c55.135-.204 94.968 24.13 119.5 73a3027.898 3027.898 0 0 1 36 98c9.603 43.921-.064 82.921-29 117a7768.673 7768.673 0 0 0-76.5 71c17.872 64.429 50.205 120.096 97 167a12889.38 12889.38 0 0 1 86-27.5c53.033-14.536 98.533-2.036 136.5 37.5l56 68c28.213 37.623 34.213 78.623 18 123-10.355 22.69-25.522 41.524-45.5 56.5-51.197 40.722-109.531 58.722-175 54-48.23-6.117-89.563-26.117-124-60C348.842 741.937 257.009 594.771 203 423.5a679.058 679.058 0 0 1-23-100c-3.995-59.015 13.338-110.681 52-155 39.94-43.885 89.107-70.885 147.5-81Z"></path> </svg> 